<svg xmlns="http://www.w3.org/2000/svg" viewBox="0 0 3840 5830"><path d="m3192.22 2986.46-4.04 47.99-10.65 126.37v.67l-2.67-3.67s-1-4.25-1.25-5-3.58-2.5-3.58-2.5l-1.17-8.67-5.69-2.03s-.78-2.77-.78-3.77-2.45-4.89-3.56-8.11c-1.11-3.23-3.33-2.56-4.11-3.12-.78-.55-2-4.11-2.11-5.11s1-3.33 1.67-5.44c.66-2.11 3.78-4.33 3.78-4.33s-4.34-4.34-5.34-5.89c-.49-.77-.64-.94-.66-.97.01.01.04.01 0-.14-.12-.45-1.12-2-.89-3 .22-1-.67-5.67-.67-5.67l-1.33-3.11 2-7-5.11-1s-4.78 2.89-5.45 1.44c-.67-1.44-1.67-1.78-1.67-1.78l.78-3.66 4.67-9.34-4.45-2.77-2.55-4.89-3.67 6.66s-1.66 2.45-2 2.89c-.33.45-1.55 5.34-1.55 5.34s-1.23-.78-1.78-1.11c-.56-.34-2.33.33-2.33.33l-2.45 5-4.11 3.55-4.78 3-.11 7.45 3.22 6.11-3.11 5.78-4 1.22 3 5.67-1.11 2.22s-4 4.78-4.33 5.55c-.34.78 6.66.12 7.44 0l-1.55 6-5.67 2.78-1.67 7.22-9 3.34h-1.77s-7.67-3.11-8-3.11-7-1.11-7-1.11l-2.67 4.55 10.67 1.89-1.78 8.56-.67 6.55 8.45 2.78 8.77 5.11-2.44 6.22s-2.45-.11-2.78-.11-5.55 1.33-5.55 1.33l-5.89 2.89-7.89-3.66-4.22 4.66-5.12 2.67-21.55 17.89s3.11.11 4.89.11 8.33 3.67 8.33 3.67 10.45 3.89 12.11 4.11c1.67.22 8.56 1.66 11 1.66s6.11 1.89 6.11 1.89l10.56 10.56.78 7.33-1.78 3.89-2.89.78s-3.33-1.56-3.89-2.78c-.55-1.22.33-3 .67-3.55.33-.56-1.89-5.23-1.89-5.23l-2.45.78-.11-3.67s-2.22-3.11-2.55-3.11-4.11-.44-4.11-.44l-1 4.33s-3.34 5.11-3.56 5.45c-.22.33-.89 7.44-.89 7.44s2.56 2.45 4.11 2.45 5.45.88 5.89 1c.45.11 6.11 3.44 6.45 3.44s8.55 1.22 8.55 1.22l2.45 5.89-5 3.67s-5.89-2.67-8.56-4.34c-2.67-1.66-2.55.78-2.55.78l-2.23 2.78s-2.44 2.56-2.89 2.78c-.44.22 0 4.66 0 5.44s-2.22 5.22-2.22 5.22l-8.44 6.34-43.34 22.72s-1.5-.5-3-1.83c-1.5-1.34-4.83 2.16-5.33 2.5-.5.33-1.17 7.83-1.17 7.83s-4.66-2.17-8.33-4.33c-3.67-2.17 0-4.5 0-4.5l1.83-3.84s-1.33-5.33-4.5-6.66c-3.16-1.34-1.83-1.17-5.5-4-3.66-2.84-1-3.34-1-3.34s3.5-.33 6.17-.83 1.83-4.83 1.83-5.5-3.5-1.83-3.5-1.83-1.5-2-1.16-4.67c.33-2.67.33-1.83 1-2.5.66-.67 6.83-.33 7.83-.67 1-.33 2.33-7.33 2.33-7.33l-4-4s-.5-1-.66-1.5c-.17-.5-4.84-2.67-6.17-4s-4.5.83-5.83 1.5c-1.34.67-2.34 2-3.67 3.17-1.33 1.16-2.59 3-2.59 3s-4.08-.17-4.74-.34c-.67-.16-1.84-.66-1.84-.66s-3.66-4.34-2.66-5.34-.5-.83-.5-.83l.33-2s.33-2.5.67-3c.33-.5 2.5-2.67 2.83-4s-1.17-3.67-1.17-6.33 1-2.84 1.34-4.17c.33-1.33 1-3 1.33-3.83.33-.84.83-2.84.83-2.84l1.17-5.83.33-6.67s.34-2.16.34-3.33v-8.5c0-1.67.16-1.5.16-2.83s.67-5.84 1-7c.34-1.17 0-1 .34-2.17.33-1.17 0-3 .16-4.17.17-1.16 0-2.33 0-4.33s-5.16-6.17-7.16-7.67-1.67-.16-2.5-.83c-.84-.67.16-2 .16-3.33s.84-7.34.84-10.67-3.34-9-3.34-9-1.5 4.83-1.66 6.33c-.17 1.5-2.17 8-2.17 8l-1.67 3.67-.83 3.17-3.17 2.66-3 .84s-3.33 2.83-4.33 3.5c-1 .66-2.33 2.16-3.67 3.16-1.33 1-4.83 2-5.33 2.5s1.5.17 1.5.17l2.17 1.83s.83 4.5.83 5.17-3.33 3-4.17 3.5c-.83.5-1.5 1.83-2.5 3.67-1 1.83-2.16 4.5-2.5 5.83-.33 1.33 0 2 0 2l.17 3.83 1 6.34v3.66l-1.17 1.5-1 4.17-5.66 3.67-1 2.33-1.34 4.83-3.83-.5-2.5-4v-3.83l-5.17-.33s-5-4.34-5.66-4.34 0 2.84 0 2.84l1 6.5v7l-9.89 5.94s-4-3.55-5.11-3.78c-1.11-.22-5.56 6.67-5.56 6.67l-.22 3.78 3.11 9.11s-2 .22-3.11.22-3.11 5.56-3.11 5.56l6.22 2v4l-6.44 2v7.55h-.67c-.67 0-4.67.67-5.11.89-.45.22-3.56 6.22-3.56 6.22l3.56 1.56s-2.22 2.67-3.33 4c-1.12 1.33.22 1.55 0 2.67-.23 1.11-1.56.88-1.56.88l-3.56-1.11-2.88 4-3.12 1.56 1.78 2.89v4.66l-3.55-1.11-3.07 2.45-2.04 1.33s1.55 4.22 2 5.33c.44 1.12-2.28.67-2.28.67l-1.28 3.33s0 1.34.89 1.78c.89.45 0 2.22 0 2.22l-1.56.89s-2.22 2.67-2.22 3.34.89.89 1.11 2-3.33 1.55-4.66 1.77c-1.34.23-3.56.23-3.56.23l-1.56 1.33s-1.33 2.44-2 3.33c-.66.89-4.66 1.56-4.66 1.56l-4 3.11h-4.89l-2-1.11s-1.56-1.56-2-3.11c-.45-1.56-1.33-3.56-1.33-6s-3.56-6.89-4-9.34c-.45-2.44-6.45-5.11-8.23-5.11s-5.55 2.67-6.66 3.56-6.45 9.78-6.45 9.78l-4.22 2.66-4.22-.44s-6.45-3.33-6.89-5.11c-.45-1.78.67-7.34.67-7.34l4-3.77s.66-6.23 0-6.89c-.67-.67-8.23.89-8.23.89l-4.22-7.56-1.33-2.22 1.11-8.89-2-.67.67-6.89 2.66-3.77s-3.33-4.67-3.78-6.45c-.44-1.78 2.89-2.44 2.89-2.44l6-4.22s-7.11-3.34-7.77-3.34-7.34-1.55-7.34-1.55-.44-4.67 0-5.34c.45-.66 2.45-2.44 2.45-2.44s1.55-3.78 2.22-4.67 2.89 0 2.89 0l3.11-2.89 2.22-7.11-4.67-1.78-3.33-2.44-5.55-3.56 2.44-3.33 6.44-3.11-4.22-5.78-2.66 1.78s-2-.67-2.89-.67-4.89-2.22-7.34-3.11c-2.44-.89-2.66-.44-3.33-.44s-1.56-.45-1.56-.45l-3.6-3.55s-1.28-2-1.28-3.11 0-5.78.88-7.34c.89-1.55 0-3.77 0-3.77l-7.33-5.78-4.44 4.89s-1.78 4.66-1.56 5.33 0 1.11 0 3.33-1.33 5.34-1.33 5.34l-2.45 5.55-8-2-2.66 1.56v5.11l-1.78 1.78-7.11-2-2.89 2.89s6 3.33 7.33 3.33h3.56l2 6.89-2.67 3.78s-6.22-1.78-7.33-2.23c-1.11-.44-7.11-.66-8.31-.66s-1.91-.23-3.47-.23-3.78 2-3.78 2l-.44 5.56s.22 8.44.44 11.11.67 5.33.67 6v14c0 2 0 5.33-.22 7.11-.23 1.78-7.11 4.56-7.11 4.89s2.22 7.22 2.22 7.22.66 5.11 2 6.34c1.33 1.22 9.33 4.77 9.66 5 .34.22-3.22 2.77-3.22 2.77l-2.89.45-6.22-5.67-5 1.89-4.67.78-1.33 3.89-.78 2.55-1.55 4.34-1.22 2.22 1.22 6.89v4l-110.42-42.39 2.5-5.67-11.75-4.33-.67 1-6.16-.25v-5l-11.75-4.08v-1.84l-45.42-15.83-7.75-1.75-2.75-.83-7.33-1.34v-2.16l-40.59-14.59-5.41.17-14.17-5.08-.75 1.25-2 1.41-4.75-.91v-2.5l-14-5.42-9.42 5.17-9.08-1.84-71.39-26.5s-16.33-6.26-21.42-8.4l1.42-4.26-2.55-.67-2.45.33s-1.55-1-1.78-1.44c-.22-.45-2.22-2.78-2.22-2.78s-2.44-2.22-3.66-2.78c-1.23-.55-4.45-2.11-4.45-2.11s-2.22-1-2.89-.89c-.66.11-2.33.22-2.33.22l-2.22.89-13.11-4-2.23-1.55.11-1.45 2.62-2.39s3.5-3.16 3.5-3.33-.23-3.11-.23-3.11-.89-.44-1.05-.67c-.17-.22-1.22-1.83-1.39-2.5-.17-.66-2.72-3.77-2.72-3.77l2.58-2.59s-1.5-1.91-2.58-2.41c-1.09-.5-1.59-.17-1.59-.17l-.5-.67v-1.33c0-.33.25-1.42.25-1.42l.5-.58c.5-.58 1.5-1.25 2.42-2s.5-.67.67-1.92c.16-1.25-.25-1.41-.34-1.91-.08-.5-.91-.59-1.83-1.17s-1.58-.67-1.83-.83c-.25-.17-1.42-1.5-1.42-2.92s0-.92.17-1.5c.16-.58.33-3.25.66-3.67 0 0 1.34-.5 2.59-1.33s1.91-.58 2.83-1.17c.92-.58 1.5-.75 2.17-1.08.66-.33 1.33-1.17 1.33-1.17v-.91c0-.92-.75-1.59-1.33-2.42-.59-.83-1.59-.92-2.34-1.75s-1.33-2.17-1.41-2.5c-.09-.33-4.67-4.25-4.67-4.25l-.25-.5s.08-1 .5-1.75.42-.58.67-.92c.25-.33.75-1 1.08-1.41.33-.42.42-.5.75-1.42s0-1.25 0-2-.17-1.5-.33-3.92c-.17-2.41-.92-2-1.09-2.58-.16-.58-2.5-1.42-3.66-1.92-1.17-.5-.84 0-1.17 0s-2.17 1-3.67 1.59c-1.5.58-1.91.58-2.66.58s-2.84.08-4-.08c-1.17-.17 0-1.09.08-1.67s2.83-4.42 3.08-4.58c.25-.17 1.75-.84 2.5-1.25.75-.42 2-.67 3.42-1.67s1.5-2 1.92-3.17c.41-1.16.58-2.83.58-3.16s-.83-.67-1.25-1c-.42-.34-1.25-.17-1.25-.17l-1.25-.17s-.92-1.08-2.08-2.91c-1.17-1.84-1.17-.67-1.17-.67s-1.5 1.42-1.83 1.58c-.34.17-2.09.5-2.59.5s-1.5-1-1.5-1 .09-.83.09-1.16.33-2 .91-3.67c.59-1.67.34-1.08.59-1.42.25-.33.66-.66.66-.66s1.75-.25 2.42-.67l.67-.42s-.75-2.25-.84-2.58c-.08-.33-.41-.42-1.16-.92s-1.17-.75-1.42-.91c-.25-.17-.92-.92-1.08-1.25-.17-.34-.34-.92-.84-2.17s.25-.33 0-.75-1.16-1.25-1.16-1.25l-1.09-.83-2.08-.25s-1.08-.5-1.42-.75c-.33-.25-1.75 1.16-2.33 1.5-.58.33-1.83.66-2.58.66s-.42-.25-.59-.83c-.16-.58 0 0-.83-3.5s.08-1.58.08-1.58 1.92-1.67 2.34-2.17c.41-.5 0-.58.58-2s.58-.42 1.92-1.67c1.33-1.25-1.84-2.75-2.25-2.75s-1.09.5-1.5.67c-.42.17-2.42 1.25-3.17 1.75s-2.17-.08-2.17-.08h-1.25s0-1.17.09-1.75c.08-.59.66-1.5.66-1.5s.34-.92 1.25-2.5c.92-1.59 1.09-2.09 1.09-2.59s-2-1.83-2.34-2c-.33-.16-1.83.17-1.83.17l-1.17-1.83v-5l-4 .66-.66 4s-1.84 3-2 3.42c-.17.42-1.59 2.42-1.59 2.42l-2.33.75-1.17-1-3.58-.42-.92 2.75-.64 2.56 2.23-98.81 8.33-367.96.36-.12 955.11 253-.22 5.11-4.22 2.77-2.78 22.78h14.44l-1.66 31.45-15.34 6.66-2.55 39.56h6.44l-.33 23-9 4.44-3 43.78 31.67-16.33z"/><path d="M2206.08 3038.9c-.25.17-1 2.09-1 2.09l1.17 1 1.74 1.86.51.55v4.09s-.26.06-.62.14c-.69.15-1.78.39-2.21.44-.67.08-2 1.08-2.34 1.17-.33.08-2.33 1.08-2.33 1.08s-1.67.58-2.92.92c-1.25.33-2.5 1.91-2.83 2.16s-.25 3.92-.25 3.92l1.33 2.08 1.17 3.92 1.17 5.5 1.27 2.83s-1.44.78-2.33 1-3.89 1.67-3.89 1.67-.94.5-1.28 1.11c-.33.61-.61 2-.61 2s-1.5 2.17-1.66 2.44c-.17.28-2.45 1.12-3.17 1.28-.72.17-1 1.11-1 1.11l3.56 2.84 1.11 1.55-2.11 2.5-.17 3.5 1.83 2.56 1.17 1.66s.72 3.17 1.05 4c.34.84 1.78 2.12 1.95 2.23s6.33 4.05 6.33 4.05l.78 1.89-1.22 2.72-4.84-1.22-1.38-.5-3.95-6.44-1.22-2.06-4.56 1.06-5.66-3.39-3.56.72s.56 4.67.45 4.94c-.12.28-1.12 1.84-1.12 1.84l-.05 3 4.72 2.11 3 2.42-.08 1.66-.59 2.92s-3.08 0-3.66.08c-.59.09-1.09 1.5-1.09 1.5v3.34c0 .25 1.34 1.66 1.34 1.66s2.33.67 3.33.92 1.75 2.75 1.75 2.75l1.5 2.08h2.58c1.42 0 2.5.42 3.09.5.58.09 1.66.17 1.66.17s2.34-.5 2.92-.83c.58-.34 2.08-.25 2.08-.25l1.42 1.08 1.92 2s.5 0 2.33-.67c1.83-.66 1.67-.5 2-.5.2 0 .81 1.58 1.28 2.85.3.85.55 1.57.55 1.57s-.24.02-.59.04c-.43.02-1.02.04-1.57.04-1 0-4.84-.16-6.09-.16s-3.66-.75-4.33-.75-2.42.41-4.33 1.33c-1.92.92-3.42 1.25-3.42 1.25l-1.92 1.17-.16 1.75h-1.5c-.25 0-1.59 0-2.25.16-.67.17 0 .67 0 .67l-.5 1.75-2.09.42s-1.66-1.17-2.16-1.17-1.42 1.92-1.42 2.33 1.58 2.84 1.58 2.84 1.75-.59 2.67-1c.92-.42 2.67-.59 2.67-.59s3-1.75 3.41-1.83c.42-.08.84.08.84.08l1.16 1.92-3.25 1.75.5 2.25 1.25 2.25 1 1.58 1.84.92h3.5v1.42s-3.59.83-4.42.75c-.83-.09-3.58 1.33-4.42 1.33s-3.58.92-3.58.92l-4.42.16-1 1.25-2.5 3.09-4.33 2.76-78.11 36.17-3 .27-4 .12s-4.67 1.27-4.83 1.33c-.17.05-7.56 1.94-7.56 1.94l-10.17 7.28-3.66 4.75L1766 3349.44l-7.89-4.22-10.17 3.72.45 4-4.78.12-3.28-1.95-12.72 5.06-1 2.5-4-.34-.89-1.61-38 16.56.39 3.28-15.22 7.61-4.36-1.23-38.09 16-.58 4.84-2.75-.34-6.17 1.25-4.58 4.25-16.05 13.84-8.84 3.72s-4.94-.89-6.94-1.44c-2-.56-7.28-1.95-7.72-2-.45-.06-6.17 1-6.17 1s-11.39 4.22-11.83 4.38c-.45.17-3.06 1.62-3.06 1.62s-5.5 3.11-5.72 3.27c-.22.17-.72 2.67-.72 2.67l-3.95 7-2.94 8.39-172.75 80-6.5-1.92-2.34-.83s-2.33-3.25-2.66-4.83c-.34-1.59.41-4.67.41-4.67s.92-4.75.5-5.58c-.41-.84-1.66-.67-5.33-2.67-3.55-1.93-.24-.52-.01-.43-.05-.15-.5-1.3-.57-2.24-.09-1-.42-1.5-.42-2.33s-2-2.83-4.5-4.75c-2.19-1.68-2.08-.41-2.02-.08-.15-.42-.81-2.53-.73-3.5.08-1.09 1.08-1.84 2.42-2.5 1.33-.67 2.58-.59 2.91-.75.34-.17-.58-2.59-.66-3.34-.09-.75-3.59-3.75-2.84-4.16.75-.42 2.34-1 2.34-1l.5-3-.9-1.59-1.27-.33-.08-4.58s-2.75-1.09-3-1.09-1.84-2.08-1.84-2.08l-2.58-.08-3.33.08-.25-1.75.5-.58s3.33-1.17 3.91-1.5c.59-.34 4.92-2.09 4.92-2.09s-.83-1.41-1.17-1.58c-.33-.17-3.75-1.08-4.5-1.17-.75-.08-1.75-.16-1.75-.16l.09-2.34s4.66-2.5 5.5-2.91c.83-.42 2.91-2.67 4-3.17 1.08-.5.83-3 .83-3l-2.42-.92-6.66-.5-2.09-.41-2.5-2.34.25-1.41s.75-1.75 1.09-2.25c.33-.5.83-1.09.83-1.09s-.92-3.41-1-4.16-.5-1.09-.67-1.34c-.16-.25-.83-1.91-.83-1.91s-3.33.66-3.58.41-1.59-2.25-1.59-2.25.25-1.5.42-2 .08-2.58.08-2.58v-1.42c0-.5-1.08-3.75-1.16-4-.09-.25-1.17 1.59-1.17 1.59l-1.92 1.83-1.5-2.83-.91-2.67-1.09-1-2.25-.83-2.83 3.83-2.42 2.5s.09-1.42 0-1.92c-.08-.5-1.41-.75-1.41-.75l-2.92.59v-3.09c0-1.75-1.25-2.5-1.25-2.5s-2.92 3.59-3.08 3.84c-.17.25-2.34 1.66-2.34 1.66l-.66-.83v-3.58c0-.92-3.92-2.5-3.92-2.5l-3.17-.84 1.67 6-.83 3.34v2.5l-3.42 1.08-1.08 2.83-3.5 1.34-3.5.5-1 1.66-1.75 3.42-.25 4.17 4.66 4.16s-.41 4-.41 4.42-3 2.17-3 2.17l-.17 4.58-2.67 3.5 1.92 4.33 2.25 6.59-6.83 3.25-4.42 3.5-2.42-.59.67-5.08.08-2.33.17-1.84 2.92-.33.75-3.92-1.59-3.66-1.83-2.67-1.17-.08-1.08 2.91-1.17 2.5-2.08.75-4.36-.25-4.56-4.86s.28-1.17.61-1.61c.34-.44 2.39-3.11 2.39-3.11s1.61-4.06 1.56-4.61c-.06-.56-1.89.55-1.89.55s-1.17-4.27-1.11-5.11c.05-.83 2.11-4.05 2.33-4.55s-.28-4.39-.28-4.39-3.72 3.44-3.88 3.78c-.17.33-.56 4.94-.56 4.94s-8.61-6-9.78-6.94c-1.16-.95.28 4.38.28 4.38l-6-1.66v-4.84l-3.39-3.55-1.5-3.08-2.33 3.41-2.84 2.59-2-2.67.75-1.58v-5.25s-2.58-2-3.16-2.25c-.59-.25-3 1.25-3.42 1.33s-3.08-.25-3.08-.25l-2.5-5.42-3.42-3.33-2.33 1.08-3 3.25-1 4.75-2.25 4.59-2.09 1-.91 1.08-.84 2.83v7.67l-.66 1.17-.17 4.5.83 5.41-.75 2.34-1.66 4.16-3.5.67-3.42-4.25-3.83 1.83-.92 3.92-.75 4.92-1.5.08s-5.17 4.08-5.17 3.75-.91-3.75-.91-4.08-.5-1.67-.5-1.67-2.92-3.92-2.92-4.17 2.08-5.16 2.08-5.5-9.58-3.5-9.58-3.5v-2.5l-4-3.75s-3.58 1.59-4.25 1.67-2.58 1.92-2.58 1.92l-1.17 2.5-1.5 1.08-4.42 3.58-.41 1.84-5.42-1.09-2.25-3.16-1.58.75-3.25 2.66-4.75 1.5-.92-.16s-.83-1.92-1-2.59c-.17-.66-2.5-.25-2.5-.25l.08 3-.75 5-.5 1.84s1.75 3.08 2.09 3.25c.33.16.66.5.66.5l-.66 3.08-.67.33v6l-1.58 3.17-1.92-2.75-2.42 2.92v6.58l-5.08-.92.67 3.59.5 2.41-2.25-.83-4.59 1.67-420.66-62-13.4-184.62-1.69-23.22 73-26-6.66-88.5-31.06-4.44-.89-9.84 29.95-10.77-2.78-41.61-7.83-1.62.27-5.94 1256.05-420.04-.5-5.95 1-3.16 59.34-19.95 21.5 6.09 87.34-29.06 47.66 13.04.06-4.18 18.86-6.43-8.33 367.96-2.23 98.83-.36 1.42s-1.5 2.17-1.75 2.33"/></svg>