<svg xmlns="http://www.w3.org/2000/svg" viewBox="0 0 3840 5830"><path d="m3209.21 2788.05-9.13 177.36v.67l-2.72-3.67s-1.02-4.25-1.27-5-3.64-2.5-3.64-2.5l-1.19-8.67-5.79-2.03s-.79-2.77-.79-3.77-2.49-4.89-3.62-8.11c-1.13-3.23-3.39-2.56-4.18-3.12-.79-.55-2.04-4.11-2.15-5.11s1.02-3.33 1.7-5.44c.67-2.11 3.85-4.33 3.85-4.33s-4.42-4.34-5.43-5.89c-.5-.77-.65-.94-.67-.97.01.01.04.01 0-.14-.12-.45-1.14-2-.91-3 .22-1-.68-5.67-.68-5.67l-1.35-3.11 2.04-7-5.2-1s-4.86 2.89-5.55 1.44c-.68-1.44-1.7-1.78-1.7-1.78l.79-3.66 4.75-9.34-4.53-2.77-2.59-4.89-3.73 6.66s-1.69 2.45-2.04 2.89c-.34.45-1.58 5.34-1.58 5.34s-1.25-.78-1.81-1.11c-.57-.34-2.37.33-2.37.33l-2.49 5-4.18 3.55-4.86 3-.11 7.45 3.28 6.11-3.16 5.78-4.07 1.22 3.05 5.67-1.13 2.22s-4.07 4.78-4.41 5.55c-.35.78 6.78.12 7.57 0l-1.58 6-5.77 2.78-1.7 7.22-9.16 3.34h-1.8s-7.8-3.11-8.14-3.11-7.12-1.11-7.12-1.11l-2.72 4.55 10.86 1.89-1.81 8.56-.68 6.55 8.6 2.78 8.92 5.11-2.48 6.22s-2.49-.11-2.83-.11-5.65 1.33-5.65 1.33l-5.99 2.89-8.03-3.66-4.29 4.66-5.21 2.67-21.93 17.89s3.16.11 4.98.11 8.48 3.67 8.48 3.67 10.63 3.89 12.32 4.11c1.7.22 8.71 1.66 11.19 1.66s6.22 1.89 6.22 1.89l10.75 10.56.79 7.33-1.81 3.89-2.94.78s-3.39-1.56-3.96-2.78c-.56-1.22.34-3 .68-3.55.34-.56-1.92-5.23-1.92-5.23l-2.49.78-.11-3.67s-2.26-3.11-2.59-3.11-4.18-.44-4.18-.44l-1.02 4.33s-3.4 5.11-3.62 5.45c-.22.33-.91 7.44-.91 7.44s2.61 2.45 4.18 2.45 5.55.88 5.99 1c.46.11 6.22 3.44 6.56 3.44s8.7 1.22 8.7 1.22l2.49 5.89-5.09 3.67s-5.99-2.67-8.71-4.34c-2.72-1.66-2.59.78-2.59.78l-2.27 2.78s-2.48 2.56-2.94 2.78c-.45.22 0 4.66 0 5.44s-2.26 5.22-2.26 5.22l-8.59 6.34-44.1 22.72s-1.53-.5-3.05-1.83c-1.53-1.34-4.92 2.16-5.42 2.5-.51.33-1.19 7.83-1.19 7.83s-4.74-2.17-8.48-4.33c-3.73-2.17 0-4.5 0-4.5l1.86-3.84s-1.35-5.33-4.58-6.66c-3.22-1.34-1.86-1.17-5.6-4-3.72-2.84-1.02-3.34-1.02-3.34s3.56-.33 6.28-.83 1.86-4.83 1.86-5.5-3.56-1.83-3.56-1.83-1.53-2-1.18-4.67c.34-2.67.34-1.83 1.02-2.5.67-.67 6.95-.33 7.97-.67 1.02-.33 2.37-7.33 2.37-7.33l-4.07-4s-.51-1-.67-1.5c-.17-.5-4.93-2.67-6.28-4s-4.58.83-5.93 1.5c-1.36.67-2.38 2-3.73 3.17-1.35 1.16-2.64 3-2.64 3s-4.15-.17-4.82-.34c-.68-.16-1.87-.66-1.87-.66s-3.72-4.34-2.71-5.34-.51-.83-.51-.83l.34-2s.34-2.5.68-3 2.54-2.67 2.88-4-5.24-9.56-5.24-12.22 1.02-2.84 1.36-4.17 1.02-3 1.35-3.83c.34-.84.84-2.84.84-2.84l1.19-5.83.34-6.67s.35-2.16.35-3.33v-8.5c0-1.67.16-1.5.16-2.83s.68-5.84 1.02-7c.35-1.17 0-1 .35-2.17.34-1.17 0-3 .16-4.17.17-1.16 0-2.33 0-4.33s-5.25-6.17-7.29-7.67-1.7-.16-2.54-.83c-.85-.67.16-2 .16-3.33s.85-7.34.85-10.67-3.4-9-3.4-9-1.53 4.83-1.69 6.33c-.17 1.5-2.21 8-2.21 8l-1.7 3.67-.84 3.17-3.23 2.66-3.05.84s-3.39 2.83-4.41 3.5c-1.02.66-2.37 2.16-3.73 3.16-1.35 1-4.92 2-5.42 2.5s1.53.17 1.53.17l2.21 1.83s.84 4.5.84 5.17-3.39 3-4.24 3.5c-.84.5-1.53 1.83-2.54 3.67-1.02 1.83-2.2 4.5-2.54 5.83s0 2 0 2l.17 3.83 1.02 6.34v3.66l-1.19 1.5-1.02 4.17-5.76 3.67-1.02 2.33-1.36 4.83.16 5.39-2.54-4v-3.83l-5.26-.33s-5.09-4.34-5.76-4.34 0 2.84 0 2.84l1.02 6.5v7l-10.06 5.94s-4.07-3.55-5.2-3.78c-1.13-.22-5.66 6.67-5.66 6.67l-.22 3.78 3.16 9.11s-2.04.22-3.16.22-3.16 5.56-3.16 5.56l6.33 2v4l-6.55 2v7.55h-.68c-.68 0-4.75.67-5.2.89-.46.22-3.62 6.22-3.62 6.22l3.62 1.56s-2.26 2.67-3.39 4c-1.14 1.33.22 1.55 0 2.67-.23 1.11-1.59.88-1.59.88l-3.62-1.11-2.93 4-3.17 1.56 1.81 2.89v4.66l-3.61-1.11-3.12 2.45-2.08 1.33s1.58 4.22 2.04 5.33c.45 1.12-2.32.67-2.32.67l-1.3 3.33s0 1.34.91 1.78c.91.45 0 2.22 0 2.22l-1.59.89s-2.26 2.67-2.26 3.34.91.89 1.13 2-3.39 1.55-4.74 1.77c-1.36.23-3.62.23-3.62.23l-1.59 1.33s-1.35 2.44-2.04 3.33c-.67.89-4.74 1.56-4.74 1.56l-4.07 3.11h-4.98l-2.04-1.11s-1.59-1.56-2.04-3.11c-.46-1.56-1.35-3.56-1.35-6s-3.62-6.89-4.07-9.34c-.46-2.44-6.56-5.11-8.37-5.11s-5.65 2.67-6.78 3.56-6.56 9.78-6.56 9.78l-4.29 2.66-4.29-.44s-6.56-3.33-7.01-5.11c-.46-1.78.68-7.34.68-7.34l4.07-3.77s.67-6.23 0-6.89-8.37.89-8.37.89l-4.29-7.56-1.35-2.22 1.13-8.89-2.04-.67.68-6.89 2.71-3.77s-3.39-4.67-3.85-6.45c-.45-1.78 2.94-2.44 2.94-2.44l6.11-4.22s-7.24-3.34-7.91-3.34-7.47-1.55-7.47-1.55-.45-4.67 0-5.34c.46-.66 2.49-2.44 2.49-2.44s1.58-3.78 2.26-4.67 2.94 0 2.94 0l3.16-2.89 2.26-7.11-4.75-1.78-3.39-2.44-5.65-3.56 2.48-3.33 6.55-3.11-4.29-5.78-2.71 1.78s-2.04-.67-2.94-.67-4.98-2.22-7.47-3.11c-2.48-.89-2.71-.44-3.39-.44s-1.59-.45-1.59-.45l-3.66-3.55s-1.3-2-1.3-3.11 0-5.78.9-7.34c.91-1.55 0-3.77 0-3.77l-7.46-5.78-4.52 4.89s-1.81 4.66-1.59 5.33 0 1.11 0 3.33-1.35 5.34-1.35 5.34l-2.49 5.55-8.14-2-2.71 1.56v5.11l-1.81 1.78-7.24-2-2.94 2.89s6.11 3.33 7.46 3.33h3.62l2.04 6.89-2.72 3.78s-6.33-1.78-7.46-2.23c-1.13-.44-7.24-.66-8.46-.66s-1.94-.23-3.53-.23-3.85 2-3.85 2l-.45 5.56s.22 8.44.45 11.11.68 5.33.68 6v14c0 2 0 5.33-.22 7.11-.23 1.78-7.24 4.56-7.24 4.89s2.26 7.22 2.26 7.22.67 5.11 2.04 6.34c1.35 1.22 9.49 4.77 9.83 5 .35.22-3.28 2.77-3.28 2.77l-2.94.45-6.33-5.67-5.09 1.89-4.75.78-1.35 3.89-.79 2.55-1.58 4.34-1.24 2.22 1.24 6.89v4l-111.64-29.52 2.54-5.67-11.96-4.33-.68 1-6.27-.25v-5l-11.96-4.08v-1.84l-46.22-15.83-7.89-1.75-2.8-.83-7.46-1.34v-2.16l-41.3-14.59-5.51.17-14.42-5.08-.76 1.25-2.04 1.41-4.83-.91v-2.5l-14.25-5.42-9.59 5.17-9.24-1.84-72.65-26.5s-16.62-6.26-21.8-8.4l1.44-4.26-2.59-.67-2.49.33s-1.58-1-1.81-1.44c-.22-.45-2.26-2.78-2.26-2.78s-2.48-2.22-3.72-2.78c-1.25-.55-4.53-2.11-4.53-2.11s-2.26-1-2.94-.89c-.67.11-2.37.22-2.37.22l-2.26.89-13.34-4-2.27-1.55.11-1.45 2.67-2.39s3.56-3.16 3.56-3.33-.23-3.11-.23-3.11-.91-.44-1.07-.67c-.17-.22-1.24-1.83-1.41-2.5-.17-.66-2.77-3.77-2.77-3.77l2.63-2.59s-1.53-1.91-2.63-2.41c-1.11-.5-1.62-.17-1.62-.17l-.51-.67v-1.33c0-.33.25-1.42.25-1.42l.51-.58c.51-.58 1.53-1.25 2.46-2s.51-.67.68-1.92c.16-1.25-.25-1.41-.35-1.91-.08-.5-.93-.59-1.86-1.17s-1.61-.67-1.86-.83c-.25-.17-1.44-1.5-1.44-2.92s0-.92.17-1.5c.16-.58.34-3.25.67-3.67 0 0 1.36-.5 2.64-1.33s1.94-.58 2.88-1.17c.94-.58 1.53-.75 2.21-1.08.67-.33 1.35-1.17 1.35-1.17v-.91c0-.92-.76-1.59-1.35-2.42-.6-.83-1.62-.92-2.38-1.75s-1.35-2.17-1.43-2.5c-.09-.33-4.75-4.25-4.75-4.25l-.25-.5s.08-1 .51-1.75.43-.58.68-.92c.25-.33.76-1 1.1-1.41.34-.42.43-.5.76-1.42s0-1.25 0-2-.17-1.5-.34-3.92c-.17-2.41-.94-2-1.11-2.58-.16-.58-2.54-1.42-3.72-1.92-1.19-.5-.85 0-1.19 0s-2.21 1-3.73 1.59c-1.53.58-1.94.58-2.71.58s-2.89.08-4.07-.08c-1.19-.17 0-1.09.08-1.67s2.88-4.42 3.13-4.58c.25-.17 1.78-.84 2.54-1.25.76-.42 2.04-.67 3.48-1.67s1.53-2 1.95-3.17c.42-1.16.59-2.83.59-3.16s-.84-.67-1.27-1c-.43-.34-1.27-.17-1.27-.17l-1.27-.17s-.94-1.08-2.12-2.91c-1.19-1.84-1.19-.67-1.19-.67s-1.53 1.42-1.86 1.58c-.35.17-2.13.5-2.64.5s-1.53-1-1.53-1 .09-.83.09-1.16.34-2 .93-3.67c.6-1.67.35-1.08.6-1.42.25-.33.67-.66.67-.66s1.78-.25 2.46-.67l.68-.42s-.76-2.25-.85-2.58c-.08-.33-.42-.42-1.18-.92s-1.19-.75-1.44-.91c-.25-.17-.94-.92-1.1-1.25-.17-.34-.35-.92-.85-2.17s.25-.33 0-.75-1.18-1.25-1.18-1.25l-1.11-.83-2.12-.25s-1.1-.5-1.44-.75-1.78 1.16-2.37 1.5c-.59.33-1.86.66-2.63.66s-.43-.25-.6-.83c-.16-.58 0 0-.84-3.5s.08-1.58.08-1.58 1.95-1.67 2.38-2.17c.42-.5 0-.58.59-2s.59-.42 1.95-1.67c1.35-1.25-1.87-2.75-2.29-2.75s-1.11.5-1.53.67c-.43.17-2.46 1.25-3.23 1.75s-2.21-.08-2.21-.08h-1.27s0-1.17.09-1.75c.08-.59.67-1.5.67-1.5s.35-.92 1.27-2.5c.94-1.59 1.11-2.09 1.11-2.59s-2.04-1.83-2.38-2c-.34-.16-1.86.17-1.86.17l-1.19-1.83v-5l-4.07.66-.67 4s-1.87 3-2.04 3.42-1.62 2.42-1.62 2.42l-2.37.75-1.19-1-3.64-.42-.94 2.75-.65 2.56 2.27-98.81 7.93-363.01.37-.12 965.91 232.18-.22 5.11-4.29 2.77-2.83 22.78h14.69l-1.69 31.45-15.61 6.66-2.59 39.56h6.55l-.34 23-9.16 4.44-3.05 43.78 32.23-16.33 4.63 2Z"/><path d="M2212.26 2856.37c-.25.17-1.02 2.09-1.02 2.09l1.19 1 1.77 1.86.52.55v4.09s-.26.06-.63.14c-.7.15-1.81.39-2.25.44-.68.08-2.04 1.08-2.38 1.17-.34.08-2.37 1.08-2.37 1.08s-1.7.58-2.97.92c-1.27.33-2.54 1.91-2.88 2.16s-.25 3.92-.25 3.92l1.35 2.08 1.19 3.92 1.19 5.5 1.29 2.83s-1.47.78-2.37 1-3.96 1.67-3.96 1.67-.96.5-1.3 1.11-.62 2-.62 2-1.53 2.17-1.69 2.44c-.17.28-2.49 1.12-3.23 1.28-.73.17-1.02 1.11-1.02 1.11l3.62 2.84 1.13 1.55-2.15 2.5-.17 3.5 1.86 2.56 1.19 1.66s.73 3.17 1.07 4c.35.84 1.81 2.12 1.98 2.23s6.44 4.05 6.44 4.05l.79 1.89-1.24 2.72-4.93-1.22-1.4-.5-4.02-6.44-1.24-2.06-4.64 1.06-5.76-3.39-3.62.72s.57 4.67.46 4.94c-.12.28-1.14 1.84-1.14 1.84l-.05 3 4.8 2.11 3.05 2.42-.08 1.66-.6 2.92s-3.13 0-3.72.08c-.6.09-1.11 1.5-1.11 1.5v3.34c0 .25 1.36 1.66 1.36 1.66s2.37.67 3.39.92 1.78 2.75 1.78 2.75l1.53 2.08h2.63c1.44 0 2.54.42 3.14.5.59.09 1.69.17 1.69.17s2.38-.5 2.97-.83c.59-.34 2.12-.25 2.12-.25l1.44 1.08 1.95 2s.51 0 2.37-.67c1.86-.66 1.7-.5 2.04-.5.2 0 .82 1.58 1.3 2.85.31.85.56 1.57.56 1.57s-.24.02-.6.04c-.44.02-1.04.04-1.6.04-1.02 0-4.93-.16-6.2-.16s-3.72-.75-4.41-.75-2.46.41-4.41 1.33-3.48 1.25-3.48 1.25l-1.95 1.17-.16 1.75h-1.53c-.25 0-1.62 0-2.29.16-.68.17 0 .67 0 .67l-.51 1.75-2.13.42s-1.69-1.17-2.2-1.17-1.44 1.92-1.44 2.33 1.61 2.84 1.61 2.84 1.78-.59 2.72-1c.94-.42 2.72-.59 2.72-.59s3.05-1.75 3.47-1.83c.43-.08.85.08.85.08l1.18 1.92-3.31 1.75.51 2.25 1.27 2.25 1.02 1.58 1.87.92h3.56v1.42s-3.65.83-4.5.75c-.84-.09-3.64 1.33-4.5 1.33s-3.64.92-3.64.92l-4.5.16-1.02 1.25-2.54 3.09-4.41 2.76-82.68 31.48-3.05.27-4.07.12s-4.75 1.27-4.92 1.33c-.17.05-7.69 1.94-7.69 1.94l-10.35 7.28-3.72 4.75-291.39 118.22-8.03-4.22-10.35 3.72.46 4-4.86.12-3.34-1.95-12.94 5.06-1.02 2.5-4.07-.34-.91-1.61-39.63 13.94.4 3.28-15.49 7.61-4.44-1.23-38.76 16-.59 4.84-2.8-.34-34.81 17.38-9.6 4.8c-12.83-6.52-23.17-4.34-31.62 4.44-2.53 2.62-3.55 6.36-2.85 9.93l.51 2.59-25.98 12.98-156.51 68.5-6.61-1.92-2.38-.83s-2.37-3.25-2.71-4.83c-.35-1.59.42-4.67.42-4.67s.94-4.75.51-5.58c-.42-.84-1.69-.67-5.42-2.67-3.61-1.93-.24-.52-.01-.43-.05-.15-.51-1.3-.58-2.24-.09-1-.43-1.5-.43-2.33s-2.04-2.83-4.58-4.75c-2.23-1.68-2.12-.41-2.06-.08-.15-.42-.82-2.53-.74-3.5.08-1.09 1.1-1.84 2.46-2.5 1.35-.67 2.63-.59 2.96-.75.35-.17-.59-2.59-.67-3.34-.09-.75-3.65-3.75-2.89-4.16.76-.42 2.38-1 2.38-1l.51-3-.92-1.59-1.29-.33-.08-4.58s-2.8-1.09-3.05-1.09-1.87-2.08-1.87-2.08l-2.63-.08-3.39.08-.25-1.75.51-.58s3.39-1.17 3.98-1.5c.6-.34 5.01-2.09 5.01-2.09s-.84-1.41-1.19-1.58c-.34-.17-3.82-1.08-4.58-1.17-.76-.08-1.78-.16-1.78-.16l.09-2.34s4.74-2.5 5.6-2.91c.84-.42 2.96-2.67 4.07-3.17 1.1-.5.84-3 .84-3l-2.46-.92-6.78-.5-2.13-.41-2.54-2.34.25-1.41s.76-1.75 1.11-2.25c.34-.5.84-1.09.84-1.09s-.94-3.41-1.02-4.16-.51-1.09-.68-1.34c-.16-.25-.84-1.91-.84-1.91s-3.39.66-3.64.41-1.62-2.25-1.62-2.25.25-1.5.43-2 .08-2.58.08-2.58v-1.42c0-.5-1.1-3.75-1.18-4-.09-.25-1.19 1.59-1.19 1.59l-1.95 1.83-1.53-2.83-.93-2.67-1.11-1-2.29-.83-2.88 3.83-2.46 2.5s.09-1.42 0-1.92c-.08-.5-1.43-.75-1.43-.75l-2.97.59v-3.09c0-1.75-1.27-2.5-1.27-2.5s-2.97 3.59-3.13 3.84c-.17.25-2.38 1.66-2.38 1.66l-.67-.83v-3.58c0-.92-3.99-2.5-3.99-2.5l-3.23-.84 1.7 6-.84 3.34v2.5l-3.48 1.08-1.1 2.83-3.56 1.34-3.56.5-1.02 1.66-1.78 3.42-.25 4.17 4.74 4.16s-.42 4-.42 4.42-3.05 2.17-3.05 2.17l-.17 4.58-2.72 3.5 1.95 4.33 2.29 6.59-6.95 3.25-4.5 3.5-2.46-.59.68-5.08.08-2.33.17-1.84 2.97-.33.76-3.92-1.62-3.66-1.86-2.67-1.19-.08-1.1 2.91-1.19 2.5-2.12.75-4.44-.25-4.64-4.86s.28-1.17.62-1.61c.35-.44 2.43-3.11 2.43-3.11s1.64-4.06 1.59-4.61c-.06-.56-1.92.55-1.92.55s-1.19-4.27-1.13-5.11c.05-.83 2.15-4.05 2.37-4.55s-.28-4.39-.28-4.39-3.79 3.44-3.95 3.78c-.17.33-.57 4.94-.57 4.94s-8.76-6-9.95-6.94c-1.18-.95.28 4.38.28 4.38l-6.11-1.66v-4.84l-3.45-3.55-1.53-3.08-2.37 3.41-2.89 2.59-2.04-2.67.76-1.58v-5.25s-2.63-2-3.22-2.25c-.6-.25-3.05 1.25-3.48 1.33s-3.13-.25-3.13-.25l-2.54-5.42-3.48-3.33-2.37 1.08-3.05 3.25-1.02 4.75-2.29 4.59-2.13 1-.93 1.08-.85 2.83v7.67l-.67 1.17-.17 4.5.84 5.41-.76 2.34-1.69 4.16-3.56.67-3.48-4.25-3.9 1.83-.94 3.92-.76 4.92-1.53.08s-5.26 4.08-5.26 3.75-.93-3.75-.93-4.08-.51-1.67-.51-1.67-2.97-3.92-2.97-4.17 2.12-5.16 2.12-5.5-9.75-3.5-9.75-3.5v-2.5l-4.07-3.75s-3.64 1.59-4.32 1.67-2.63 1.92-2.63 1.92l-1.19 2.5-1.53 1.08-4.5 3.58-.42 1.84-5.52-1.09-2.29-3.16-1.61.75-3.31 2.66-4.83 1.5-.94-.16s-.84-1.92-1.02-2.59c-.17-.66-2.54-.25-2.54-.25l.08 3-.76 5-.51 1.84s1.78 3.08 2.13 3.25c.34.16.67.5.67.5l-.67 3.08-.68.33v6l-1.61 3.17-1.95-2.75-2.46 2.92v6.58l-5.17-.92.68 3.59.51 2.41-2.29-.83-4.67 1.67-422.78-58.11-18.84-163.26-3.61-53.41 78-23.67-8.11-96.11-31.61-4.44-.91-9.84 30.48-10.77-2.83-41.61-7.97-1.62.27-5.94 1277.64-384.57-.51-5.95 1.02-3.16 59.3-16.63 21.88 6.09 88.83-27.33 46 11.33.83-5.17 21.5-3.83-7.93 363.01-2.27 98.83-.37 1.42s-1.53 2.17-1.78 2.33"/></svg>