<svg xmlns="http://www.w3.org/2000/svg" viewBox="0 0 3840 5830"><path d="m2659.7 3022.01-10.64 232.63-60.84 112-3.33 5-5.83 3.33s-1.84-5.83-2-7c-.17-1.16 8.33-6 9-6.83.66-.83 3.33-9.67 3.33-9.67l-6.5.84-8.17 4.66s.84-3.5 1.34-9.66c.5-6.17-1.5-3.17-1.5-3.17s-5.5-6-6.17-7-6-.83-6-.83-2-7.67-2.17-9.17c-.16-1.5-4.83-7.67-4.83-7.67l-6.5 1.84-4.67 7.16v6.17l-1.83 2-2.5 3.67s-7.67 5.16-7.83 5.5c-.17.33 0 .83 0 .83v6c0 .83-4 5.17-4 5.17l-.84 2.83.84 4-5 .83s-3 4.84-.34 5.5c2.67.67 5.34 2.5 5.34 2.5s-5.84 1.5-8 1.67c-2.17.17-8.17 3.67-8.17 3.67l4.67 6s-3.5 4-4 4.66c-.5.67.66 6.5.66 6.5s5.34-.5 7-1.16c1.67-.67 4.5 5.33 4.5 5.33l-2.16 3.17-10 1 1.16 7-2.66 5.5-4.67 3.33-15.78 40.39s.67 1.66.67 2.5-2.59 3.08-4 4.25c-1.42 1.16-3.84 2-5.67 3.08s-6.25 4.67-8.08 6.5c-1.84 1.83-2.09 6.17-1.5 6.17s4.75-4.5 5.75-5.42 7.41.67 8 .67 1.08 5.66 1.16 6.41c.09.75-2.5 4.5-2.91 4.67-.42.17-5.42 1.83-8 2.17-2.59.33-4.84.08-5.42.08s-6.42-1.83-8.42-2.17c-2-.33-4.66 2.84-6 3-1.33.17-10.16-2.33-11.5-3.16-1.33-.84-6-4.17-6.75-5.42s.59-5.83.59-5.83 6.58-5.92 7.08-6.5c.5-.59 3.25-1.84 4.83-3.5 1.59-1.67 0-3.5 0-3.5s-3.16-3.17-4.75-4.59c-1.58-1.41-3.16-1.33-3.16-1.33s-5.5-3.58-5.75-4.75-1.25-2.33-1.09-4.42c.17-2.08 2.84-1 4.17-1.75s4.08-5 4.08-5.58-2.58-.33-9.5-2.67c-6.91-2.33-3.58-3.58-4.16-5.16-.59-1.59 0 0 4.75-3.09 4.75-3.08-.92-4.58-.92-5.66s1.58-2.34 1.58-2.34l-.58-6-6.08-2.91 2.75-1.75 2.41-3.42s-3.58-2.67-4.16-2.75c-.59-.08-7.34.17-7.34.17l-1.08-2.92 7.25-1.83s5.67-2.59 9-4.59 4.33-5.33 4.33-5.75-5.33-1.33-6.41-1.5c-1.09-.16-4.17.34-6.67.25-2.5-.08-3.25-1.5-3.25-1.5s-1.58-2.66-1.58-4 1.16-3.83 1.33-4.08 6.75-1.5 7.33-1.83c.59-.34 2.75-2.42 2.75-2.42s-1.33-2-1.66-3.5c-.34-1.5 9.16-5 9.16-5l-2.75-5.33s-4.58 5.16-4.58 4.91-5.25-3.58-5.25-3.58l-3.08 2s-3.84-2.42-3.92-2.83c-.08-.42 1-6.09 2.08-10 1.09-3.92 0-4.75 0-4.75s-2.83-1.84-4.25-2.75c-1.41-.92-3.83-1.25-3.83-1.25l-3.42-3.17-3.08 8.25-2.92-6s-2.16-.5-2.41-.33c-.25.16-1.5 3.25-2.34 3.75-.83.5-2.83-.17-3.33-.42s0-1.83 0-3.67.5-1.91.5-1.91 1.83-3.5 2.17-4.67c.33-1.17-1.17-2.33-1.42-2.67-.25-.33-.92-5-.92-5l-3.41-3.83s-2.5 1.67-3.75 1-3.25.83-4.59 1.08c-1.33.25-1.91 4.25-1.91 4.25l1.16 6.75-3.58 2.25s-2.17 1.67-2.75 1.84c-.58.16-.92 2.33-.92 2.33v1.92l-1.33 2.16s-1 1.09-1 1.84-.83 2-.83 2-.59-1.84-1.42-2.67-2.33-.83-3.25-.83-3.17 0-4.25.08-.5 2-.5 2.5-.92 3.42-.92 3.42l-1.08 1.91-1.75-.66s-.83 1.58-1.08 1.91c-.25.34-2.17.84-2.42.84s-1.58 2-1.58 2l2.44 5.5-.44 5.78s-2.22.44-3.78.44-5.56-.44-8.22-.44-3.34 6.22-3.34 6.22l4.23 5.33h1.55c1.56 0 2.67.22 7.78.45 5.11.22 5.33.66 5.33.66s-2.22 5.78-3.11 5.78h-6.44c-1.78 0-7.34 2-7.34 2l.23 3.33s2 6.23 1.33 7.56-5.56.67-5.56.67l-7.55 7.55s3.78 1.56 6 1.33c2.22-.22 11.11 5.56 11.11 5.56l-1.33 6s-2.23.89-3.34 1.33c-1.11.45-9.11 6.23-9.55 6.89-.45.67-2 6.22-2 6.22l-9.78 4.23s4 2.66 7.11 2.66.89 3.11.89 3.11l-8.22-.44-3.34 8.44 4.23 1.12 2 4.22-7.78 7.55 3.11 6.89 6.89 2.45-5.78 7.77-212.55-35.38 11.77-7.17-23-3.89-1.25 3.25-3.41.33-1-5.83-21.42-2.42v-3.83l-59-8.83v2.16l-24.67-2.33.59-4.33-58.84-8.34v2.34h-3.58v-1.59l-20.5-2.66-.75 3h-6.08v-3.75s-20.5-2.17-21.42-2.17-5.42 6.75-5.42 6.75l-9.75-1.33-1 1.33-98.5-16.67-25.33-6.33-1.5-6.67-11.67-5.5-7.83-.33-6.5 4s-11.44-.61-11.44-1.06v-1.11c0-.44.44-3.11.44-3.11l-.11-1.55s.22-3.23.44-3.67c.23-.44 2-.11 2.78-.11s4.78.67 4.78.67 2.55.11 3.44 0c.89-.12 1.23-.45 2-1.56.78-1.11.23-1 .23-2s0-1.44-.23-2.33c-.22-.89-.22-.45-.89-1.78-.66-1.33-1-1.67-1.22-2.22-.22-.56-1.22-1.11-1.89-2.23-.66-1.11-2.89-2.11-5.11-3.33-.66-.37-.93-.51-.99-.55.07.02.87.43.66.22-.33-.34-.78-1.22-1.33-2.78-.56-1.56-.89-2.22-.89-2.22s2.22-4.67 3.11-6c.89-1.34.78-1.89.78-1.89s-3.23-.45-4.56-.33c-1.33.11-1.89.11-3.22-1.12-1.34-1.22-1-1-1.56-3.22-.55-2.22.78-3.11.78-3.11s1.22-2.55 1.67-3.11c.44-.56 4.89-.67 5.44-.67s3.67 1.11 5.22 1.11 3.78-1.22 3.78-1.22l1.56-3s1.33-2.89 2.33-4.89.78-2.22 1.22-2.89c.45-.66 2.34-3.22 2.34-3.22l1.55-4.22-3.55.56-4.89.22-3.45.44-3.11 1.11-3.33-3-10.22-3.11 7.66-6.11 1.22-6-2.44-8-13.33 1.11s.22-1.89.33-4.33c.11-2.45.78-6.78.78-6.78l2.33-4.89-8.33.89s.66-3.67.89-5.22c.22-1.56 2.55-1.78 5.11-2.56 2.55-.77 2.89-1.66 3.11-2.44s.22-4.33.22-5.56-2.67-.33-3.33-.11c-.67.22-6 7.34-8 7.67s-1-1.89-1-2.89 3-3.22 3-3.22-3-9.45-3.45-9.67c-.44-.22-2.33 1.45-2.33 1.45l-4.56.77s-7.55-1.44-8.22-2.22c-.66-.78.11-.78.11-.78s4.11-2.11 5.11-2.77c1-.67.45-2.34.45-2.34s-.22-3.55-1.11-3.78c-.89-.22-2.11.89-3.56 1-1.44.12-1.33 0-3.89-.11-2.55-.11-1-1.77-.55-3.66.44-1.89.33-1.56 3.78-4.67 3.44-3.11.55-3.44.55-3.44s-1.11-.78-1.67-1.34c-.55-.55-2.33-2.11-4.11-3.44-1.77-1.34-2.11.11-3.44.33s-4.11 5.78-4.89 7.33c-.78 1.56-1.44 5.23-1.44 5.23s-2.23 2.77-2.67 2.77H1645c-.67 0-6 3.23-6 3.23l.33 2.66.67 4.23-.78 4.11-1.33-.11-5.22 2.22s-4.34 4.11-4.45 4.55c-.11.45.78 3.11.78 3.11h2.67c.55 0 .55 1.89.55 1.89l-.22 5.56-.78 3.67-4 5.22 1 5.11-3.33 10s-2.67-1.45-4.11-1.78c-1.45-.33-2.89 1.67-2.89 1.67s-2.33 8.89-2.33 10.33 1 8.11 1 8.11 4.55 6.56 4.77 6.89c.23.33 7.67 7.89 7.67 7.89l-3.33 5.67-10.89-4.23-8.56-5.88-6 .66 4.11 4.45 2 4.44-4.11 1.22 4 6.45-2.66 3.66s-2.12 8.89-2.12 9.23 11.78 4.66 11.78 4.66l29.34 1.89.77 3.11-10.77 3.67-12.78-.67h-10l-32.78-7.89-5.24-228.88 6.57-6.09 80.61 11.95 4.23-4.84 14.5.89v6.34l93.97 14.08 12.67-12.39 7.22.67V3156l89.66 12.39-1.22 8.72h22.17l.67 6 197.83 27.83 4.67-3.33 22.16 2 16.67-11v8.17l98.5 14.83 8.5-10.5 15 .33-3.5 4.67v8.83l118.83 17.17 7.84-13h16.83l-4.83 6-.34 10 108.84 15.67 8-11.67 14.66 1.17z"/><path d="m2660.06 3014.08-.36 7.94-127.23 228.26-14.66-1.17-8 11.67-108.84-15.67.34-10 4.83-6h-16.83l-7.84 13-118.83-17.17v-8.83l3.5-4.67-15-.33-8.5 10.5-98.5-14.83v-8.17l-16.67 11-22.16-2-4.67 3.33-197.83-27.83-.67-6h-22.17l1.22-8.72-89.66-12.39v-14.83l-7.22-.67-12.67 12.39-93.97-14.08v-6.34l-14.5-.89-4.23 4.84-80.61-11.95-6.57 6.09-3.65-159.12 9.33-6.22v-10.66l-16.88-15.56v-64l-10.23-7.56-15.11 13.78-124.89-123.11V2699l-5.77-11.56 1252.27 152.31.23 6.78-5.56 7.11-1.44 41.55 5.88-.22-.11 10.67-6.22 8.67-4.21 75.74 8.21-.19-2 25.78 3.11-2z"/></svg>