<svg xmlns="http://www.w3.org/2000/svg" viewBox="0 0 3840 5830"><path d="m2855.46 2340.75-3.91 6.71v60.67l-156 126.66-42-30-6.67 10.67v62l-13.34 193.67-12.07-9.98-62 11.67-15-11.67h-7.67l4.67 4.17.83 10-91.17 15.33-8.33-8.23-15.33 1.4 3.5 9.67-88.84 14.66-9.5-9.5-8.5 2.34v10l-92.33 15.33-7.17-7.83-12 1.16 1.5 10.67-95.66 15.67-7-11.34-11.84 2.34 1.34 12.66-94.67 15.67-10.67-10-10.66 2.5v12.17l-88.17 13 .67 13-248.34 35.72-22.83-13.33 1.67 10-98.67 17.33-8-12.67-16 1 5.33 3.67v10.83l-104.33 17.17-9.33-14.17-14.67 3.17 5 2.83-.83 12.17-104.34 17.83-9.33-15.66-12.67 7.5 1.17 10.33-75.17 13.33-417.1-195.01-.06-.6v-25.33l49.16-6.84-8.5-96.5-23.33-10.16.67-9.5 20.66-3.67-3-39.67-1-5.83-7.5-2.17v-7.66l1750.86-245.06-.58-6.58 92.83-13 15.42 9.75 134.56-19.14 34.72 22.22-.11-3.94 30.33-4.39z"/><path d="m2633.54 2771.13-15.24 221.25-4.13-.61c.38-.09.67-.16.82-.2 1.11-.28-.33-1.56-.33-1.56s-5.72-2.13-6.06-2.13-6.55 3.11-6.55 3.11l-7.22 1.11-2.34-3.78-2.55-9.78 4.55-1.33s3.45-.56 4.11-.67c.67-.11 3.56-4 3.56-4l1.22-2.89-3.33-1.66-4 .66s-2.78-2-2.56-3.22c.23-1.22 1.56-2.11 1.89-3.22.34-1.11-1.22-2.33-1.22-2.33s-3.44-1.12-3.78-1.45c-.33-.33-1.22-.78-1-1.33.22-.56 2.22-1.56 3.89-3.22 1.67-1.67.56-1.56 2.33-5.78 1.78-4.22-2.22-1.45-2.22-1.45l-9 2.34.78-7s1-3.11 1.33-4.56c.34-1.44-.55-4.33-.55-5v-2.33l3.55-5-7.44 2.33s-7.45 2.22-7.45 1.78.23-4.33.23-4.33l3.44-5.45s-1.11-3-1-4.43-.11-5.12-.11-5.79-3.67-4.89-3.67-4.89l-.89-5.11s-4.11-3.45-5.63-4.33c-1.51-.89-3.14-1.23-3.48-1.89-.33-.67-.66-6.11-.22-6.23.45-.11 4.11-7.66 3.67-7.66s-5.67 3.55-5.67 3.55-4.67-4.55-4.89-6.44 2.67-4.67 2.67-4.67-6.89-5.11-7.22-5.11-10 4.67-10.67 5.33c-.67.67-6.56 7.45-7.44 7.67-.89.22-7.67-.11-7.67-.11l2.89 4.56s-1.22 5.66-1.56 5.55c-.33-.11-2.11-.44-5.55-1-3.45-.55-5.23 3.33-5.89 3.78-.67.44-4.11 3.89-4.11 3.89s1.55 5.44 1 6.55c-.56 1.11.77 2.34.77 2.34s8.67 3.77 9 4c.34.22 3.56 2.66 5.56 3.89 2 1.22 2 5 2 5s-1.67-.12-2.67-.23-4.89-1.55-5.89-1.55-6.55 3.89-6.55 3.89l-2.33 5.66s1.55 3.23 1.63 3.67-.86 3.89-1.75 3.89-2.44.11-2.44.11l-.67 2.78s-2.77 6.89-2.77 7.22 5.55 4 5.55 4 3.33 6.22 1.56 5.78c-1.78-.45-5.56-2.11-7.11-2.45-1.56-.33-5.34-1.55-7.34-1.44s-1.55 4.44-1.55 4.44l-.89 5.34s-.34 4.89-.34 6.11.45 2.89.45 2.89l1.22 7s4.45-2.23 5.89-2.23 3 .67 3 .67-.89 4.22-1.56 5.22c-.66 1-.33 2.56-.22 2.89.11.34 5.11 5.56 5.11 5.56l-1.89 2.44h-4.88l-3.45 10.34-.55 2.11 6.77 5.11.56 4.22-11.67 3v5.11l-4.78 2.33-118.33 20.89s-9.89-2.77-11-2.89c-1.11-.11-7.55.23-7.55.23s-16.23 3.55-16.56 3.55-15.89 7.89-15.89 7.89l-2.44 2.56-77.78 13.41-7.42 1-5.33.67-11.42-1.17-8.83 1.84-4.92 2.91-6.08 3.09-44 7.75-14.17 1.33-10.66 4-10.42 1.33-14.83.67-5.67 3.17-89 16.25-5.25-1.5s-9.33.08-10 .16c-.67.09-12.92 1.25-13.42 1.25s-8.75 4.84-8.75 4.84l-5 2.75-65.97 12.52-3.33-6.22-16.56 3 .22 2.45-4.77.77-2.5-3.16-20.17 2.33v2.5l-5 .83-1.17-3.16-56.33 9.5v1.83l-22.33 4.33-2.67-1.66-61.33 10.5-1.67 3-22.67 6-57.5 11s-9 .16-8.33-.17-14.17-5.83-14.17-5.83-22.66 3.16-24.83 3.16-9 3.17-9 3.17l-7 9.17v9.66l-4.17.84-2.33-2.67-12.67.33-19.66 4.5-5 5-202.84 37.5s-6.33-18.5-6.33-19 1.17-2.5 2-4.83.33-2.83.17-3.83c-.17-1-4-4-5-5.5s-3.17-5.84-4.84-9c-1.66-3.17-3.5-3.67-3.5-3.67s0-4.67.67-5 3.33-1.5 4.17-1.67c.83-.16 8-1.16 9.16-2.16 1.17-1 0-1 0-2.17s-7.33-4.33-9.66-6.33c-2.34-2-6.67-4.5-7.5-5.84-.84-1.33 0-4.83 0-4.83s-.84-5.17-.84-6.83-1-8.5-1-8.5-3.16-4.17-4-5.34c-.83-1.16-1-6-1-6l1-9.16s-9.33-9.5-10-11c-.66-1.5-2.16-5.5-2.16-5.5l-7.67 1.5-2.83-2.84h-3.5l-2-3-2.17-10.33-3.83 8.33-1.17 1.34-4 7.66-2 .17-2.5 2.17-1 8.33-1.33 4.5-3.67 1.17-2.5 4.16s-.67 4.17-.67 4.67-.83 3.17-.83 3.17l-3.67.83-2.83 2-2 2.33.5 2.5.83 4.5 2.5 6.5s.17 3.84.17 4.67-2.33 0-3 0-1 2.67-2.83 6.17c-1.84 3.5-.5 6.16-.5 6.16s6 1.5 7.33 1.5 2.17.84 3.67.84 0 3.16 0 3.16l-8.67 1.84 3.5 2.33-.67 7.33s-2.5 9.17-3.16 10.34l-10.84-.67-1.16.67-8.17-1.17-3-3.5v-8.83l.5-3.17s3.17-3 3.5-3.83c.33-.84 8.33-5 8.33-5l-2-2s-2.83-2-3.33-2.84c-.5-.83-5.67-5.16-5.83-5.83-.17-.67 1.83-5.83 1.83-5.83l-6.67-.67-3-6.83 2.34-1s2-6 2-8.67-1.84 2.17-1.84 2.17l-5-4.5-3-18.84s-2.5-5.16-3.33-6.83-4.67-.33-4.67-.33-4.66.5-5.33.33-4.17-1.83-4.17-1.83-5.16-4.67-5.83-6c-.67-1.34-5.5-9.84-5.5-9.84l-8.83-7.66-2.84 2s-2.33-6.17-2.5-7.5c-.16-1.34-4.33-.5-4.33-.5l-1.67 7-8-2.34 1.48 6.67v4.67s-.48 3.16-.14 4.5c.33 1.33 0 6.5 0 6.5l-4.84-3.67s-1.5 6.67-1.83 7.67-1.83 3.83-1.83 3.83l-10 4.83 2 6.67s4.83 12 4.83 12.83-1.83 7.84-1.83 7.84l-5.5-1s-15.17-8.84-15.67-8.84-5-1.83-6.67-3c-1.66-1.16-2.5-3-2.83-3.66-.33-.67-1.33-4.67-1.33-4.67s-2.34-4.83-2.5-5.83c-.17-1-4.5-6.17-5-7.34-.5-1.16-4.84-5.66-4.84-6.5s-4.83-5.5-5.33-6.16c-.5-.67-6.5-8.34-6.5-8.34l-1.83 8.84-5.34 2-1.66 3.66h-9.67l-3.83-1.5-5-2.66-.84 2.16-6.66 2s-.34-4.33-.84-5c-.5-.66-2.16-1.83-2.16-1.83l-1 5.5-234.17-115.5-2-36.83-4.5-3.17-13.77-149.4 417.1 195.01 75.17-13.33-1.17-10.33 12.67-7.5 9.33 15.66 104.34-17.83.83-12.17-5-2.83 14.67-3.17 9.33 14.17 104.33-17.17v-10.83l-5.33-3.67 16-1 8 12.67 98.67-17.33-1.67-10 22.83 13.33 248.34-35.72-.67-13 88.17-13v-12.17l10.66-2.5 10.67 10 94.67-15.67-1.34-12.66 11.84-2.34 7 11.34 95.66-15.67-1.5-10.67 12-1.16 7.17 7.83 92.33-15.33v-10l8.5-2.34 9.5 9.5 88.84-14.66-3.5-9.67 15.33-1.4 8.33 8.23 91.17-15.33-.83-10-4.67-4.17h7.67l15 11.67 62-11.67z"/></svg>